<mxfile host="app.diagrams.net" modified="2024-04-07T12:49:20.841Z" agent="Mozilla/5.0 (Macintosh; Intel Mac OS X 10_15_7) AppleWebKit/537.36 (KHTML, like Gecko) Chrome/123.0.0.0 Safari/537.36" version="23.1.7" etag="a5xvkAE8cYOQPYb66xbl" type="github">
  <diagram name="第 1 页" id="dOIjSCwx_6XI74ZjjzT_">
    <mxGraphModel>
      <root>
        <mxCell id="0" />
        <mxCell id="1" parent="0" />
      </root>
    </mxGraphModel>
  </diagram>
</mxfile>
